<?xml version="1.0" encoding="utf-8"?>
<svg id="Layer_1" data-name="Layer 1" xmlns="http://www.w3.org/2000/svg" viewBox="0 0 553.84 552.02">
  <path fill="#6f52a2" d="M.67,.18H371.96c99.34,0,180,80.66,180,180v371.29H180.67C81.32,551.47,.67,470.82,.67,371.47V.18H.67Z"/>
  <g>
    <path  d="M243.54,394.07c-23.45,0-43.15-8.03-59.11-24.1-15.96-16.07-23.94-35.83-23.94-59.28s7.98-43.15,23.94-59.11c15.96-15.96,35.66-23.94,59.11-23.94s43.2,7.98,59.28,23.94c16.06,15.96,24.1,35.66,24.1,59.11v60.9c0,6.52-2.07,11.78-6.19,15.8-4.13,4.01-9.45,6.02-15.96,6.02s-11.78-2.01-15.8-6.02c-4.02-4.02-6.02-9.28-6.02-15.8v-60.9c0-10.85-3.86-20.08-11.56-27.68-7.71-7.6-16.99-11.4-27.85-11.4s-20.08,3.8-27.68,11.4c-7.6,7.61-11.4,16.83-11.4,27.68s3.8,20.14,11.4,27.85c7.6,7.71,16.82,11.56,27.68,11.56,6.51,0,11.83,2.01,15.96,6.03,4.12,4.02,6.19,9.28,6.19,15.79s-2.07,11.84-6.19,15.96c-4.13,4.13-9.45,6.19-15.96,6.19Z"/>
    <path d="M385.37,165.93c5.32,5.33,7.98,11.68,7.98,19.06s-2.66,13.74-7.98,19.05c-5.32,5.32-11.67,7.98-19.05,7.98s-13.74-2.66-19.05-7.98c-5.32-5.32-7.98-11.67-7.98-19.05s2.66-13.73,7.98-19.06c5.32-5.32,11.67-7.98,19.05-7.98s13.73,2.66,19.05,7.98Zm3.09,83.54c0-14.54-7.38-21.82-22.15-21.82-6.52,0-11.78,2.01-15.8,6.02-4.02,4.02-6.03,9.28-6.03,15.79v122.13c0,6.52,2.01,11.78,6.03,15.8,4.01,4.01,9.28,6.02,15.8,6.02s11.83-2.01,15.96-6.02c4.12-4.02,6.19-9.28,6.19-15.8v-122.13Z"/>
  </g>
</svg>